<svg xmlns="http://www.w3.org/2000/svg" viewBox="0 0 32 32">
  <path
    d="M30 6.786c0 .5-.2 1-.5 1.4L17.5 28.5c-.5.8-1.5 1.5-2.5 1.5s-2-.7-2.5-1.5L.5 8.186c-.3-.4-.5-.9-.5-1.4 0-1.5 1.5-2.5 3-2.5 1 0 2 .5 2.5 1.3L15 25.086l9.5-19.5c.5-.8 1.5-1.3 2.5-1.3 1.5 0 3 1.1 3 2.5z"
    fill="#bd34fe"
  />
  <path
    d="M25 4.286c0 .5-.2 1-.5 1.4-2.5 4.5-9.5 16-9.5 16L5.5 5.686c-.3-.4-.5-.9-.5-1.4 0-1.5 1.5-2.5 3-2.5 1 0 2 .5 2.5 1.3L15 20.086l4.5-17c.5-.8 1.5-1.3 2.5-1.3 1.5 0 3 1.1 3 2.5z"
    fill="#4cc"
  />
</svg>
